<?xml version="1.0" encoding="utf-8"?>
<!-- Generator: Adobe Illustrator 16.0.0, SVG Export Plug-In . SVG Version: 6.00 Build 0)  -->
<!DOCTYPE svg PUBLIC "-//W3C//DTD SVG 1.1//EN" "http://www.w3.org/Graphics/SVG/1.1/DTD/svg11.dtd">
<svg version="1.1" id="Layer_1" xmlns="http://www.w3.org/2000/svg" xmlns:xlink="http://www.w3.org/1999/xlink" x="0px" y="0px"
	 width="200px" height="200px" viewBox="0 0 200 200" enable-background="new 0 0 200 200" xml:space="preserve">
<path fill="#F93800" d="M100.033,60.7c0,0-34.918,20.888-3.802,45.917c0,0-21.41-17.083,3.898-38.757L100.033,60.7z"/>
<path fill="#F93800" d="M77.295,74.958c0,0-5.783-3.25-11.285-3.465c0,0-6.729,30.765,25.431,31.903c0,0-24.541-4.24-21-27.18
	C70.441,76.217,71.542,75.357,77.295,74.958z"/>
<path fill="#F93800" d="M82.441,83.782c0,0-3.407-2.577-6.899-3.191c0,0-6.968,19.043,13.452,22.566c0,0-15.29-4.838-11.036-19.167
	C77.958,83.989,78.736,83.536,82.441,83.782z"/>
<path fill="none" stroke="#231F20" stroke-miterlimit="10" d="M97.281,103.396"/>
<g>
	<rect x="44.606" y="119.336" fill="none" width="107.868" height="18.512"/>
	<path fill="#292669" stroke="#262261" stroke-width="1.6" stroke-miterlimit="10" d="M63.265,121.711l0.324,1.354
		c0.301,1.236,0.598,2.316,0.892,3.244c0.293,0.926,1.046,3.068,2.258,6.428c0.116-0.426,0.348-1.367,0.695-2.826
		c0.448-1.9,0.745-3.092,0.892-3.578c0.432-1.43,0.849-2.479,1.25-3.15s0.849-1.154,1.344-1.447
		c0.494-0.295,1.054-0.441,1.679-0.441c0.501,0,0.886,0.098,1.152,0.289c0.266,0.193,0.399,0.426,0.399,0.695
		c0,0.193-0.072,0.363-0.214,0.51c-0.143,0.146-0.311,0.221-0.504,0.221c-0.139,0-0.301-0.039-0.486-0.117
		c-0.386-0.154-0.618-0.242-0.695-0.266c-0.139-0.031-0.29-0.047-0.452-0.047c-0.378,0-0.703,0.129-0.973,0.383
		c-0.479,0.447-1.005,1.57-1.581,3.371c-0.575,1.799-1.307,4.674-2.195,8.627l-0.394,1.725c-0.88-1.938-1.474-3.311-1.783-4.121
		c-0.417-1.09-0.892-2.463-1.424-4.123l-1.274-4.008c-0.154,0.926-0.515,2.488-1.083,4.686c-0.567,2.195-0.905,3.461-1.014,3.791
		c-0.355,1.043-0.735,1.842-1.141,2.398c-0.405,0.555-0.849,0.961-1.332,1.215c-0.483,0.256-1.014,0.383-1.593,0.383
		c-0.726,0-1.32-0.162-1.783-0.486c-0.355-0.238-0.533-0.545-0.533-0.914c0-0.162,0.065-0.307,0.197-0.436
		c0.131-0.127,0.29-0.191,0.475-0.191c0.239,0,0.498,0.129,0.776,0.383c0.494,0.455,0.945,0.684,1.355,0.684
		c0.44,0,0.872-0.197,1.297-0.59c0.633-0.604,1.243-1.865,1.83-3.787c0.71-2.324,1.394-5.273,2.05-8.848
		c-0.271,0-0.788,0.076-1.552,0.23c-0.764,0.154-1.403,0.373-1.917,0.654c-0.514,0.281-0.907,0.648-1.181,1.1
		c-0.274,0.453-0.411,0.926-0.411,1.42c0,0.246,0.035,0.498,0.104,0.752c0.046,0.17,0.146,0.379,0.301,0.625
		c0.178,0.287,0.266,0.502,0.266,0.648c0,0.186-0.067,0.344-0.203,0.477c-0.135,0.131-0.303,0.195-0.503,0.195
		c-0.293,0-0.544-0.152-0.753-0.457s-0.313-0.77-0.313-1.395c0-1.035,0.26-1.916,0.782-2.641c0.521-0.727,1.218-1.275,2.09-1.645
		c0.556-0.232,1.629-0.455,3.219-0.672C62.195,121.934,62.747,121.834,63.265,121.711z"/>
	<path fill="#292669" stroke="#262261" stroke-width="1.6" stroke-miterlimit="10" d="M81.856,133.199l0.301,0.428
		c-0.71,0.787-1.44,1.412-2.189,1.877c-0.509,0.316-0.93,0.475-1.262,0.475c-0.27,0-0.488-0.109-0.654-0.324
		c-0.166-0.217-0.249-0.553-0.249-1.008c0-0.309,0.064-0.758,0.191-1.35c0.127-0.59,0.488-1.859,1.083-3.805
		c0.263-0.957,0.394-1.518,0.394-1.68c0-0.246-0.132-0.369-0.395-0.369c-0.325,0-0.732,0.162-1.22,0.484
		c-0.682,0.447-1.285,1.018-1.812,1.709c-0.333,0.443-0.6,1.102-0.801,1.973l-0.914,4.045h-1.726
		c0.371-1.35,0.656-2.453,0.857-3.309l1.702-7.428c0.309-1.371,0.716-2.428,1.222-3.168c0.505-0.74,1.166-1.332,1.98-1.773
		c0.815-0.443,1.62-0.664,2.415-0.664c0.332,0,0.594,0.082,0.788,0.248c0.193,0.164,0.289,0.371,0.289,0.621
		c0,0.211-0.095,0.398-0.284,0.559c-0.189,0.16-0.447,0.24-0.771,0.24c-0.186,0-0.425-0.02-0.719-0.061
		c-0.665-0.1-1.125-0.148-1.38-0.148c-0.356,0-0.646,0.145-0.87,0.432c-0.225,0.287-0.457,0.961-0.696,2.023l-1.292,5.717
		c0.92-0.963,1.921-1.777,3.003-2.439c0.634-0.393,1.144-0.59,1.531-0.59c0.301,0,0.537,0.088,0.707,0.266s0.255,0.426,0.255,0.742
		c0,0.262-0.031,0.525-0.093,0.787c-0.101,0.455-0.337,1.281-0.708,2.479c-0.503,1.652-0.8,2.68-0.889,3.08
		c-0.089,0.402-0.134,0.762-0.134,1.078c0,0.123,0.021,0.215,0.064,0.277s0.106,0.092,0.191,0.092c0.186,0,0.533-0.219,1.042-0.66
		C81.1,133.816,81.447,133.531,81.856,133.199z"/>
	<path fill="#292669" stroke="#262261" stroke-width="1.6" stroke-miterlimit="10" d="M92.038,125.717l0.764-0.162l-0.869,2.93
		c-0.348,1.166-0.676,2.51-0.984,4.031c-0.17,0.826-0.255,1.359-0.255,1.598c0,0.24,0.097,0.359,0.29,0.359
		c0.124,0,0.32-0.082,0.591-0.244c0.479-0.285,0.938-0.641,1.378-1.064l0.371,0.451c-0.88,0.803-1.444,1.289-1.691,1.459
		c-0.494,0.34-0.965,0.592-1.413,0.754c-0.293,0.107-0.579,0.162-0.857,0.162c-0.201,0-0.352-0.047-0.452-0.139
		c-0.101-0.094-0.151-0.229-0.151-0.406c0-0.115,0.031-0.273,0.093-0.475l0.463-1.576c-0.664,0.797-1.456,1.48-2.374,2.051
		c-0.564,0.355-1.081,0.533-1.552,0.533c-0.448,0-0.792-0.158-1.03-0.475c-0.325-0.426-0.487-0.98-0.487-1.668
		c0-0.818,0.218-1.73,0.654-2.734c0.437-1.002,1.021-1.914,1.755-2.732c0.733-0.818,1.505-1.42,2.316-1.807
		c0.625-0.293,1.428-0.439,2.409-0.439c0.247,0,0.498,0.016,0.752,0.045L92.038,125.717z M90.602,127.488
		c-0.417-0.084-0.769-0.127-1.054-0.127c-0.695,0-1.301,0.191-1.818,0.574c-0.517,0.381-0.998,1.068-1.441,2.061
		c-0.444,0.992-0.666,1.982-0.666,2.971c0,0.525,0.088,0.904,0.266,1.135c0.178,0.232,0.409,0.348,0.695,0.348
		c0.533,0,1.104-0.287,1.714-0.863c0.61-0.574,1.058-1.402,1.343-2.484L90.602,127.488z"/>
	<path fill="#292669" stroke="#262261" stroke-width="1.6" stroke-miterlimit="10" d="M104.334,134.994l-0.162,0.66
		c-0.533,0.115-0.969,0.174-1.309,0.174c-0.324,0-0.861-0.035-1.609-0.105c-0.564-0.045-1.07-0.068-1.518-0.068
		c-0.772,0-1.567,0.068-2.385,0.207l0.162-0.637c0.78-0.076,1.347-0.238,1.702-0.486c0.255-0.178,0.473-0.48,0.654-0.908
		c0.182-0.43,0.593-1.924,1.233-4.488l1.483-6.137l0.08-0.291c-0.455-0.023-0.799-0.033-1.031-0.033
		c-1.428,0-2.561,0.154-3.398,0.463c-0.838,0.311-1.467,0.758-1.888,1.346s-0.631,1.223-0.631,1.902c0,0.24,0.042,0.461,0.127,0.662
		c0.062,0.139,0.232,0.363,0.51,0.672c0.262,0.287,0.394,0.551,0.394,0.789c0,0.209-0.077,0.387-0.231,0.535
		c-0.155,0.146-0.34,0.219-0.556,0.219c-0.324,0-0.586-0.154-0.787-0.463c-0.294-0.455-0.44-1.033-0.44-1.736
		c0-0.941,0.292-1.857,0.875-2.744c0.583-0.889,1.384-1.576,2.403-2.063c1.02-0.486,2.258-0.729,3.718-0.729
		c0.695,0,1.803,0.1,3.324,0.301c1.08,0.139,1.863,0.207,2.35,0.207s0.83-0.08,1.031-0.242s0.301-0.379,0.301-0.648
		c0-0.055-0.012-0.162-0.035-0.324c-0.023-0.146-0.033-0.244-0.033-0.289c0-0.209,0.068-0.383,0.207-0.521s0.305-0.209,0.498-0.209
		c0.232,0,0.424,0.086,0.574,0.254c0.15,0.17,0.225,0.398,0.225,0.684c0,0.588-0.313,1.094-0.936,1.518
		c-0.625,0.426-1.67,0.637-3.135,0.637c-0.525,0-1.084-0.023-1.678-0.068c-0.078,0.277-0.322,1.219-0.732,2.824l-1.01,4.008
		l-0.615,2.443l-0.638,2.791c0.517,0.063,0.946,0.094,1.286,0.094C103.23,135.191,103.77,135.125,104.334,134.994z"/>
	<path fill="#292669" stroke="#262261" stroke-width="1.6" stroke-miterlimit="10" d="M108.893,135.654h-1.726l0.812-3.115
		c0.394-1.529,0.736-2.98,1.03-4.355c0.069-0.34,0.104-0.551,0.104-0.637c0-0.186-0.085-0.277-0.255-0.277
		c-0.116,0-0.294,0.078-0.533,0.236s-0.672,0.551-1.297,1.176l-0.359-0.404c0.741-0.795,1.48-1.393,2.218-1.789
		c0.736-0.398,1.302-0.598,1.695-0.598c0.14,0,0.249,0.033,0.33,0.1c0.081,0.064,0.122,0.148,0.122,0.248
		c0,0.102-0.051,0.369-0.152,0.803l-0.504,2.084c0.781-1.232,1.663-2.287,2.646-3.162c0.472-0.418,0.866-0.627,1.184-0.627
		c0.232,0,0.426,0.074,0.58,0.225s0.232,0.326,0.232,0.527c0,0.209-0.075,0.387-0.226,0.533s-0.527,0.32-1.129,0.521
		c-0.57,0.193-1.035,0.424-1.395,0.695c-0.358,0.27-0.752,0.682-1.18,1.238c-0.429,0.557-0.728,1.041-0.897,1.453
		c-0.171,0.414-0.43,1.373-0.778,2.879L108.893,135.654z"/>
	<path fill="#292669" stroke="#262261" stroke-width="1.6" stroke-miterlimit="10" d="M122.069,125.717l0.765-0.162l-0.869,2.93
		c-0.347,1.166-0.675,2.51-0.983,4.031c-0.17,0.826-0.255,1.359-0.255,1.598c0,0.24,0.096,0.359,0.289,0.359
		c0.123,0,0.32-0.082,0.591-0.244c0.479-0.285,0.938-0.641,1.378-1.064l0.371,0.451c-0.881,0.803-1.444,1.289-1.691,1.459
		c-0.494,0.34-0.965,0.592-1.413,0.754c-0.293,0.107-0.579,0.162-0.856,0.162c-0.201,0-0.352-0.047-0.452-0.139
		c-0.1-0.094-0.15-0.229-0.15-0.406c0-0.115,0.031-0.273,0.093-0.475l0.463-1.576c-0.664,0.797-1.455,1.48-2.374,2.051
		c-0.563,0.355-1.081,0.533-1.552,0.533c-0.447,0-0.791-0.158-1.03-0.475c-0.324-0.426-0.486-0.98-0.486-1.668
		c0-0.818,0.218-1.73,0.654-2.734c0.436-1.002,1.021-1.914,1.754-2.732s1.506-1.42,2.316-1.807c0.626-0.293,1.429-0.439,2.409-0.439
		c0.247,0,0.498,0.016,0.753,0.045L122.069,125.717z M120.634,127.488c-0.417-0.084-0.769-0.127-1.054-0.127
		c-0.695,0-1.302,0.191-1.818,0.574c-0.518,0.381-0.998,1.068-1.442,2.061c-0.443,0.992-0.666,1.982-0.666,2.971
		c0,0.525,0.089,0.904,0.267,1.135c0.178,0.232,0.409,0.348,0.695,0.348c0.532,0,1.104-0.287,1.714-0.863
		c0.609-0.574,1.058-1.402,1.343-2.484L120.634,127.488z"/>
	<path fill="#292669" stroke="#262261" stroke-width="1.6" stroke-miterlimit="10" d="M125.271,128.635l-0.394-0.404
		c0.989-0.947,1.777-1.574,2.364-1.885c0.588-0.311,1.09-0.467,1.507-0.467c0.162,0,0.29,0.035,0.383,0.105
		c0.093,0.068,0.139,0.15,0.139,0.242c0,0.07-0.02,0.193-0.058,0.371l-0.522,2.33c0.786-0.873,1.773-1.688,2.96-2.445
		c0.632-0.395,1.152-0.592,1.561-0.592c0.301,0,0.536,0.098,0.706,0.289c0.169,0.193,0.254,0.473,0.254,0.834
		c0,0.24-0.034,0.51-0.104,0.811c-0.123,0.502-0.446,1.596-0.97,3.277c-0.492,1.576-0.738,2.623-0.738,3.139
		c0,0.158,0.023,0.277,0.069,0.357c0.047,0.078,0.112,0.117,0.197,0.117c0.224,0,0.575-0.215,1.054-0.648
		c0.34-0.309,0.679-0.594,1.019-0.855l0.29,0.416c-0.711,0.783-1.447,1.414-2.212,1.891c-0.486,0.307-0.888,0.461-1.204,0.461
		c-0.294,0-0.521-0.107-0.684-0.318c-0.162-0.213-0.243-0.559-0.243-1.037c0-0.688,0.429-2.396,1.285-5.131
		c0.263-0.973,0.394-1.539,0.394-1.701c0-0.24-0.143-0.359-0.428-0.359c-0.31,0-0.707,0.162-1.193,0.486
		c-0.726,0.48-1.332,1.045-1.818,1.693c-0.309,0.418-0.567,1.082-0.775,1.994l-0.938,4.049h-1.726
		c0.324-1.16,0.606-2.27,0.846-3.328l1.03-4.408c0.039-0.178,0.059-0.305,0.059-0.383c0-0.207-0.078-0.313-0.232-0.313
		c-0.123,0-0.301,0.082-0.532,0.246C126.136,127.787,125.688,128.176,125.271,128.635z"/>
	<path fill="#292669" stroke="#262261" stroke-width="1.6" stroke-miterlimit="10" d="M144.741,125.834l0.932-0.211
		c-0.563,1.809-1.078,3.619-1.547,5.434c-0.339,1.297-0.573,2.377-0.704,3.242c-0.069,0.432-0.108,0.98-0.115,1.645
		c-0.016,1.111-0.14,2.008-0.371,2.688c-0.324,0.949-0.929,1.713-1.813,2.293c-0.885,0.578-1.933,0.867-3.146,0.867
		c-1.042,0-1.863-0.244-2.462-0.734s-0.897-1.053-0.897-1.686c0-0.625,0.24-1.209,0.72-1.748c0.356-0.41,1.099-0.904,2.229-1.482
		c0.572-0.301,1.11-0.609,1.613-0.928c-0.574,0.295-1.02,0.441-1.338,0.441c-0.287,0-0.541-0.133-0.763-0.4
		c-0.221-0.266-0.331-0.619-0.331-1.059c0-1.422,0.423-2.832,1.269-4.234c0.846-1.4,1.863-2.453,3.053-3.154
		c0.733-0.434,1.652-0.648,2.757-0.648c0.217,0,0.483,0.008,0.8,0.021L144.741,125.834z M141.878,133.859
		c-0.526,0.471-1.539,1.223-3.04,2.258c-1.322,0.895-2.135,1.541-2.437,1.934c-0.302,0.402-0.452,0.826-0.452,1.273
		c0,0.441,0.195,0.836,0.586,1.188s0.864,0.527,1.421,0.527c0.526,0,1.037-0.129,1.532-0.389c0.495-0.258,0.926-0.633,1.294-1.123
		c0.367-0.49,0.62-1.045,0.76-1.662s0.213-1.436,0.221-2.455C141.771,135.188,141.809,134.67,141.878,133.859z M143.448,127.547
		c-0.37-0.068-0.698-0.104-0.983-0.104c-0.732,0-1.361,0.193-1.886,0.578c-0.524,0.387-0.972,1.035-1.342,1.945
		c-0.517,1.291-0.775,2.375-0.775,3.256c0,0.361,0.102,0.668,0.307,0.914c0.204,0.248,0.434,0.371,0.688,0.371
		c0.309,0,0.69-0.148,1.146-0.447c0.455-0.297,0.827-0.668,1.116-1.117c0.289-0.447,0.584-1.219,0.885-2.316L143.448,127.547z"/>
</g>
<g>
	<rect x="108.141" y="110.529" fill="none" width="37.889" height="10.742"/>
	<path fill="#262261" d="M114.968,112.16c-0.082,0.373-0.151,0.758-0.208,1.156c-0.056,0.396-0.104,0.789-0.143,1.176
		c0.093,0.004,0.183,0.006,0.27,0.008s0.169,0.004,0.244,0.006s0.145,0.004,0.206,0.004s0.113,0,0.154,0
		c0.179,0,0.325-0.012,0.438-0.033c0.01,0.033,0.019,0.064,0.024,0.092s0.009,0.053,0.009,0.076c0,0.086-0.036,0.143-0.107,0.168
		c-0.072,0.025-0.176,0.039-0.311,0.039c-0.13,0-0.274-0.008-0.435-0.023c-0.16-0.018-0.335-0.031-0.525-0.045
		c-0.021,0.209-0.04,0.414-0.055,0.613s-0.026,0.387-0.035,0.564c-0.009,0.176-0.015,0.34-0.019,0.49
		c-0.004,0.152-0.006,0.283-0.006,0.395c0,0.211,0.011,0.398,0.032,0.563c0.021,0.166,0.06,0.305,0.114,0.42
		s0.131,0.203,0.227,0.264c0.097,0.061,0.218,0.09,0.365,0.09c0.106,0,0.225-0.018,0.354-0.055c0.131-0.037,0.279-0.098,0.446-0.18
		c0.053,0.053,0.083,0.117,0.091,0.193c-0.121,0.082-0.244,0.154-0.367,0.221c-0.124,0.064-0.246,0.121-0.365,0.168
		c-0.12,0.047-0.235,0.084-0.348,0.109c-0.111,0.025-0.218,0.039-0.317,0.039c-0.132,0-0.252-0.025-0.361-0.072
		c-0.108-0.049-0.203-0.135-0.282-0.256c-0.079-0.123-0.142-0.289-0.186-0.496c-0.044-0.209-0.066-0.471-0.066-0.789
		c0-0.18,0.003-0.363,0.009-0.553s0.014-0.381,0.024-0.574c0.01-0.195,0.022-0.389,0.038-0.584c0.016-0.193,0.033-0.385,0.053-0.574
		c-0.155,0.002-0.299,0.01-0.432,0.02c-0.132,0.012-0.245,0.029-0.34,0.053c-0.006-0.012-0.009-0.025-0.009-0.043
		c0-0.041,0.021-0.078,0.061-0.115s0.097-0.068,0.168-0.1c0.071-0.029,0.157-0.053,0.258-0.072c0.1-0.02,0.21-0.033,0.329-0.041
		c0.045-0.41,0.094-0.799,0.145-1.164c0.051-0.363,0.102-0.689,0.153-0.977c0.01-0.051,0.027-0.094,0.054-0.127
		s0.058-0.059,0.093-0.078s0.074-0.033,0.115-0.041s0.081-0.012,0.12-0.012c0.065,0,0.123,0.006,0.176,0.02
		C114.874,112.115,114.923,112.135,114.968,112.16z"/>
	<path fill="#262261" d="M117.069,118.6l-0.047-0.002c0.014-0.188,0.026-0.391,0.039-0.613s0.024-0.455,0.035-0.693
		c0.011-0.24,0.021-0.484,0.029-0.732c0.01-0.248,0.018-0.49,0.024-0.729c0.007-0.236,0.013-0.465,0.018-0.684
		s0.008-0.42,0.01-0.602c0-0.059,0.013-0.107,0.038-0.145c0.026-0.037,0.058-0.066,0.095-0.088s0.077-0.037,0.12-0.045
		c0.044-0.008,0.083-0.012,0.118-0.012c0.074,0,0.143,0.008,0.203,0.025s0.119,0.039,0.177,0.066
		c-0.027,0.152-0.052,0.328-0.074,0.527c-0.021,0.199-0.042,0.414-0.063,0.641c-0.021,0.229-0.041,0.465-0.06,0.713
		c-0.019,0.246-0.038,0.496-0.06,0.744l0.029,0.004c0.094-0.385,0.2-0.744,0.319-1.076c0.118-0.332,0.252-0.621,0.4-0.867
		c0.147-0.246,0.311-0.438,0.488-0.578s0.372-0.211,0.584-0.211c0.075,0,0.145,0.012,0.209,0.035s0.121,0.057,0.168,0.1
		c0.047,0.041,0.084,0.092,0.112,0.15c0.027,0.057,0.041,0.121,0.041,0.189c0,0.088-0.02,0.172-0.058,0.254
		s-0.099,0.154-0.181,0.217h-0.024c-0.082-0.068-0.16-0.119-0.233-0.148c-0.073-0.031-0.151-0.047-0.234-0.047
		c-0.088,0-0.174,0.018-0.256,0.051s-0.158,0.082-0.227,0.145c-0.112,0.102-0.216,0.236-0.313,0.404
		c-0.096,0.168-0.184,0.354-0.263,0.559c-0.08,0.203-0.151,0.418-0.215,0.643c-0.064,0.225-0.119,0.443-0.165,0.656
		s-0.083,0.412-0.112,0.6c-0.028,0.188-0.048,0.346-0.06,0.473L117.069,118.6z"/>
	<path fill="#262261" d="M121.822,114.383c-0.033,0.223-0.062,0.447-0.085,0.672s-0.043,0.443-0.058,0.652
		c-0.015,0.211-0.025,0.408-0.032,0.596s-0.011,0.357-0.011,0.508c0,0.205,0.003,0.379,0.009,0.525s0.016,0.27,0.03,0.369
		c0.014,0.102,0.03,0.18,0.051,0.24s0.046,0.105,0.077,0.139c0.03,0.033,0.065,0.053,0.105,0.063s0.086,0.016,0.137,0.016
		c0.095,0,0.196-0.014,0.305-0.043c0.109-0.029,0.22-0.068,0.331-0.119l0.057,0.152c-0.071,0.059-0.16,0.115-0.267,0.174
		c-0.107,0.059-0.22,0.113-0.337,0.162c-0.118,0.049-0.233,0.09-0.346,0.119c-0.113,0.031-0.211,0.047-0.293,0.047
		c-0.056,0-0.105-0.006-0.15-0.014c-0.045-0.01-0.086-0.031-0.122-0.066s-0.068-0.088-0.098-0.156
		c-0.028-0.068-0.052-0.162-0.07-0.279s-0.033-0.266-0.043-0.441c-0.01-0.178-0.015-0.391-0.015-0.643
		c0-0.146,0.002-0.313,0.005-0.498s0.007-0.385,0.013-0.598s0.014-0.438,0.023-0.674c0.011-0.236,0.023-0.48,0.039-0.732
		c0.004-0.055,0.019-0.1,0.044-0.133c0.025-0.035,0.057-0.061,0.094-0.08c0.037-0.018,0.077-0.031,0.119-0.037
		c0.043-0.008,0.081-0.012,0.116-0.012C121.583,114.291,121.707,114.322,121.822,114.383z M121.566,113.053
		c-0.068,0-0.13-0.014-0.183-0.043s-0.098-0.066-0.136-0.111c-0.037-0.047-0.065-0.1-0.085-0.16
		c-0.02-0.059-0.029-0.121-0.029-0.184c0-0.088,0.015-0.166,0.044-0.234c0.029-0.066,0.067-0.123,0.115-0.17
		c0.047-0.047,0.099-0.08,0.155-0.104c0.058-0.021,0.113-0.033,0.168-0.033c0.067,0,0.127,0.012,0.18,0.037
		c0.053,0.023,0.099,0.059,0.137,0.102s0.068,0.092,0.089,0.148c0.021,0.055,0.03,0.115,0.03,0.18c0,0.07-0.012,0.139-0.035,0.205
		c-0.023,0.068-0.057,0.129-0.099,0.184c-0.042,0.057-0.093,0.1-0.153,0.133C121.705,113.035,121.639,113.053,121.566,113.053z"/>
	<path fill="#262261" d="M122.992,114.598c0.221-0.066,0.407-0.121,0.563-0.162s0.285-0.074,0.391-0.098
		c0.104-0.023,0.187-0.039,0.247-0.049c0.06-0.008,0.104-0.012,0.134-0.012c0.049,0,0.095,0.006,0.138,0.021
		c0.044,0.016,0.081,0.039,0.113,0.074c0.033,0.037,0.058,0.084,0.075,0.145c0.018,0.059,0.026,0.133,0.026,0.221
		c0,0.029-0.001,0.088-0.004,0.174s-0.009,0.205-0.017,0.357s-0.018,0.34-0.03,0.561s-0.029,0.48-0.049,0.777l0.035,0.004
		c0.153-0.381,0.318-0.719,0.496-1.012s0.358-0.539,0.542-0.74c0.183-0.199,0.366-0.352,0.549-0.455
		c0.183-0.102,0.355-0.154,0.521-0.154c0.134,0,0.251,0.025,0.354,0.076c0.102,0.049,0.19,0.115,0.267,0.199
		c0.075,0.084,0.139,0.18,0.189,0.289c0.051,0.107,0.092,0.223,0.124,0.342c0.031,0.117,0.054,0.238,0.067,0.359
		s0.021,0.236,0.021,0.342c0,0.289-0.029,0.559-0.088,0.809c-0.06,0.252-0.14,0.482-0.242,0.691
		c-0.102,0.209-0.223,0.395-0.361,0.561c-0.14,0.164-0.29,0.303-0.452,0.416s-0.332,0.199-0.509,0.26
		c-0.178,0.059-0.356,0.09-0.534,0.09c-0.19,0-0.376-0.035-0.557-0.104s-0.351-0.184-0.509-0.342
		c-0.022,0.492-0.044,1.002-0.065,1.525c-0.021,0.525-0.033,1.074-0.035,1.645l-0.618,0.07l-0.062-0.002
		c0.029-0.367,0.057-0.752,0.082-1.156c0.025-0.402,0.049-0.807,0.071-1.213c0.021-0.406,0.041-0.807,0.059-1.199
		c0.018-0.395,0.032-0.764,0.044-1.109s0.021-0.658,0.028-0.939s0.01-0.516,0.01-0.699c0-0.074-0.004-0.141-0.012-0.195
		c-0.008-0.057-0.022-0.104-0.045-0.141c-0.023-0.037-0.056-0.064-0.099-0.084c-0.044-0.018-0.101-0.027-0.171-0.027
		c-0.073,0-0.161,0.008-0.266,0.023c-0.104,0.016-0.229,0.041-0.376,0.078L122.992,114.598z M124.518,117.918
		c0.166,0.141,0.333,0.244,0.499,0.313c0.165,0.066,0.332,0.1,0.498,0.1c0.22,0,0.423-0.047,0.608-0.141
		c0.186-0.092,0.345-0.232,0.479-0.416s0.239-0.412,0.315-0.684c0.075-0.273,0.113-0.588,0.113-0.947
		c0-0.133-0.011-0.271-0.031-0.412s-0.053-0.27-0.098-0.385c-0.044-0.113-0.102-0.209-0.173-0.281
		c-0.072-0.074-0.159-0.111-0.261-0.111c-0.12,0-0.238,0.031-0.356,0.094c-0.117,0.061-0.231,0.145-0.343,0.25
		c-0.11,0.105-0.217,0.229-0.319,0.369c-0.102,0.141-0.198,0.291-0.288,0.449c-0.091,0.158-0.173,0.32-0.247,0.488
		c-0.075,0.168-0.141,0.33-0.196,0.49c-0.056,0.158-0.101,0.309-0.135,0.449C124.549,117.686,124.527,117.811,124.518,117.918z"/>
	<path fill="#262261" d="M129.365,118.645c-0.068,0-0.131-0.014-0.187-0.043c-0.057-0.027-0.104-0.066-0.142-0.113
		s-0.067-0.102-0.089-0.162c-0.021-0.061-0.03-0.121-0.03-0.186c0-0.09,0.015-0.17,0.045-0.238c0.031-0.068,0.07-0.125,0.118-0.172
		c0.048-0.045,0.102-0.08,0.16-0.104c0.06-0.023,0.117-0.035,0.174-0.035c0.066,0,0.128,0.012,0.185,0.037
		c0.056,0.025,0.103,0.061,0.143,0.102c0.039,0.043,0.069,0.092,0.091,0.15s0.032,0.119,0.032,0.184c0,0.07-0.012,0.141-0.035,0.209
		s-0.058,0.131-0.102,0.186s-0.097,0.1-0.159,0.135C129.508,118.627,129.439,118.645,129.365,118.645z"/>
	<path fill="#262261" d="M133.611,115.498c0-0.154-0.025-0.289-0.076-0.402c-0.051-0.115-0.118-0.207-0.2-0.281
		c-0.082-0.072-0.176-0.125-0.279-0.16c-0.104-0.035-0.208-0.055-0.313-0.055c-0.139,0-0.257,0.016-0.353,0.045
		c-0.097,0.029-0.175,0.07-0.234,0.121s-0.104,0.111-0.13,0.182c-0.026,0.068-0.039,0.145-0.039,0.225
		c0,0.094,0.017,0.189,0.051,0.283c0.035,0.096,0.085,0.188,0.152,0.279l-0.012,0.031c-0.112,0.055-0.226,0.082-0.339,0.082
		c-0.066,0-0.129-0.01-0.187-0.029c-0.059-0.021-0.108-0.051-0.15-0.09s-0.075-0.088-0.101-0.145
		c-0.024-0.057-0.036-0.121-0.036-0.191c0-0.115,0.027-0.225,0.084-0.326c0.056-0.104,0.13-0.195,0.222-0.281
		c0.093-0.084,0.199-0.158,0.321-0.227c0.121-0.066,0.247-0.123,0.376-0.168c0.13-0.047,0.26-0.082,0.391-0.107
		c0.13-0.023,0.252-0.035,0.363-0.035c0.206,0,0.382,0.027,0.528,0.082s0.265,0.135,0.356,0.24c0.091,0.104,0.157,0.23,0.2,0.381
		c0.042,0.148,0.063,0.318,0.063,0.506c0,0.129-0.005,0.271-0.016,0.428c-0.011,0.154-0.023,0.316-0.037,0.486
		s-0.025,0.344-0.036,0.525c-0.012,0.18-0.017,0.359-0.017,0.539c0,0.281,0.053,0.494,0.157,0.637
		c0.105,0.143,0.243,0.213,0.414,0.213c0.15,0,0.319-0.055,0.506-0.168l0.085,0.127c-0.131,0.131-0.274,0.232-0.43,0.301
		c-0.154,0.068-0.317,0.104-0.488,0.104c-0.128,0-0.245-0.023-0.354-0.066c-0.107-0.043-0.201-0.107-0.279-0.191
		c-0.078-0.086-0.14-0.193-0.183-0.322c-0.043-0.131-0.064-0.279-0.064-0.451c0-0.051,0.001-0.102,0.004-0.152
		s0.01-0.105,0.02-0.162h-0.018c-0.084,0.168-0.182,0.334-0.293,0.498c-0.11,0.164-0.232,0.311-0.365,0.439
		c-0.132,0.129-0.273,0.232-0.424,0.313c-0.149,0.078-0.308,0.119-0.472,0.119c-0.136,0-0.26-0.023-0.371-0.072
		c-0.112-0.047-0.208-0.111-0.287-0.193s-0.142-0.18-0.186-0.293s-0.066-0.236-0.066-0.369c0-0.172,0.032-0.33,0.096-0.471
		c0.064-0.143,0.152-0.268,0.266-0.381c0.112-0.111,0.247-0.207,0.404-0.289s0.327-0.148,0.512-0.203s0.38-0.094,0.586-0.121
		c0.206-0.025,0.416-0.039,0.63-0.039c0.014-0.123,0.025-0.244,0.034-0.359S133.611,115.637,133.611,115.498z M131.805,117.52
		c0,0.078,0.008,0.15,0.024,0.221c0.017,0.068,0.044,0.131,0.08,0.184s0.082,0.094,0.138,0.125c0.057,0.029,0.124,0.045,0.202,0.045
		c0.088,0,0.18-0.02,0.273-0.061c0.095-0.043,0.188-0.1,0.278-0.172s0.179-0.158,0.262-0.26c0.084-0.102,0.158-0.211,0.226-0.332
		c0.066-0.119,0.122-0.246,0.166-0.377c0.044-0.133,0.073-0.27,0.087-0.408c-0.146,0.004-0.289,0.014-0.433,0.027
		c-0.144,0.016-0.279,0.039-0.407,0.07c-0.129,0.031-0.248,0.072-0.358,0.123c-0.109,0.051-0.204,0.113-0.283,0.189
		c-0.08,0.076-0.143,0.166-0.188,0.268C131.827,117.266,131.805,117.385,131.805,117.52z"/>
	<path fill="#262261" d="M135.477,114.598c0.221-0.066,0.407-0.121,0.563-0.162s0.285-0.074,0.391-0.098
		c0.104-0.023,0.187-0.039,0.247-0.049c0.06-0.008,0.104-0.012,0.134-0.012c0.049,0,0.095,0.006,0.138,0.021
		c0.044,0.016,0.081,0.039,0.113,0.074c0.033,0.037,0.058,0.084,0.075,0.145c0.018,0.059,0.026,0.133,0.026,0.221
		c0,0.029-0.001,0.088-0.004,0.174s-0.009,0.205-0.017,0.357s-0.018,0.34-0.03,0.561s-0.029,0.48-0.049,0.777l0.035,0.004
		c0.153-0.381,0.318-0.719,0.496-1.012s0.358-0.539,0.542-0.74c0.183-0.199,0.366-0.352,0.549-0.455
		c0.183-0.102,0.355-0.154,0.521-0.154c0.134,0,0.251,0.025,0.354,0.076c0.102,0.049,0.19,0.115,0.267,0.199
		c0.075,0.084,0.139,0.18,0.189,0.289c0.051,0.107,0.092,0.223,0.124,0.342c0.031,0.117,0.054,0.238,0.067,0.359
		s0.021,0.236,0.021,0.342c0,0.289-0.029,0.559-0.088,0.809c-0.06,0.252-0.14,0.482-0.242,0.691
		c-0.102,0.209-0.223,0.395-0.361,0.561c-0.14,0.164-0.29,0.303-0.452,0.416s-0.332,0.199-0.509,0.26
		c-0.178,0.059-0.356,0.09-0.534,0.09c-0.19,0-0.376-0.035-0.557-0.104s-0.351-0.184-0.509-0.342
		c-0.022,0.492-0.044,1.002-0.065,1.525c-0.021,0.525-0.033,1.074-0.035,1.645l-0.618,0.07l-0.062-0.002
		c0.029-0.367,0.057-0.752,0.082-1.156c0.025-0.402,0.049-0.807,0.071-1.213c0.021-0.406,0.041-0.807,0.059-1.199
		c0.018-0.395,0.032-0.764,0.044-1.109s0.021-0.658,0.028-0.939s0.01-0.516,0.01-0.699c0-0.074-0.004-0.141-0.012-0.195
		c-0.008-0.057-0.022-0.104-0.045-0.141c-0.023-0.037-0.056-0.064-0.099-0.084c-0.044-0.018-0.101-0.027-0.171-0.027
		c-0.073,0-0.161,0.008-0.266,0.023c-0.104,0.016-0.229,0.041-0.376,0.078L135.477,114.598z M137.002,117.918
		c0.166,0.141,0.333,0.244,0.499,0.313c0.165,0.066,0.332,0.1,0.498,0.1c0.22,0,0.423-0.047,0.608-0.141
		c0.186-0.092,0.345-0.232,0.479-0.416s0.239-0.412,0.315-0.684c0.075-0.273,0.113-0.588,0.113-0.947
		c0-0.133-0.011-0.271-0.031-0.412s-0.053-0.27-0.098-0.385c-0.044-0.113-0.102-0.209-0.173-0.281
		c-0.072-0.074-0.159-0.111-0.261-0.111c-0.12,0-0.238,0.031-0.356,0.094c-0.117,0.061-0.231,0.145-0.343,0.25
		c-0.11,0.105-0.217,0.229-0.319,0.369c-0.102,0.141-0.198,0.291-0.288,0.449c-0.091,0.158-0.173,0.32-0.247,0.488
		c-0.075,0.168-0.141,0.33-0.196,0.49c-0.056,0.158-0.101,0.309-0.135,0.449C137.033,117.686,137.012,117.811,137.002,117.918z"/>
	<path fill="#262261" d="M140.942,114.598c0.221-0.066,0.407-0.121,0.563-0.162s0.285-0.074,0.391-0.098
		c0.104-0.023,0.187-0.039,0.247-0.049c0.06-0.008,0.104-0.012,0.134-0.012c0.049,0,0.095,0.006,0.138,0.021
		c0.044,0.016,0.081,0.039,0.113,0.074c0.033,0.037,0.058,0.084,0.075,0.145c0.018,0.059,0.026,0.133,0.026,0.221
		c0,0.029-0.001,0.088-0.004,0.174s-0.009,0.205-0.017,0.357s-0.018,0.34-0.03,0.561s-0.029,0.48-0.049,0.777l0.035,0.004
		c0.153-0.381,0.318-0.719,0.496-1.012s0.358-0.539,0.542-0.74c0.183-0.199,0.366-0.352,0.549-0.455
		c0.183-0.102,0.355-0.154,0.521-0.154c0.134,0,0.251,0.025,0.354,0.076c0.102,0.049,0.19,0.115,0.267,0.199
		c0.075,0.084,0.139,0.18,0.189,0.289c0.051,0.107,0.092,0.223,0.124,0.342c0.031,0.117,0.054,0.238,0.067,0.359
		s0.021,0.236,0.021,0.342c0,0.289-0.029,0.559-0.088,0.809c-0.06,0.252-0.14,0.482-0.242,0.691
		c-0.102,0.209-0.223,0.395-0.361,0.561c-0.14,0.164-0.29,0.303-0.452,0.416s-0.332,0.199-0.509,0.26
		c-0.178,0.059-0.356,0.09-0.534,0.09c-0.19,0-0.376-0.035-0.557-0.104s-0.351-0.184-0.509-0.342
		c-0.022,0.492-0.044,1.002-0.065,1.525c-0.021,0.525-0.033,1.074-0.035,1.645l-0.618,0.07l-0.062-0.002
		c0.029-0.367,0.057-0.752,0.082-1.156c0.025-0.402,0.049-0.807,0.071-1.213c0.021-0.406,0.041-0.807,0.059-1.199
		c0.018-0.395,0.032-0.764,0.044-1.109s0.021-0.658,0.028-0.939s0.01-0.516,0.01-0.699c0-0.074-0.004-0.141-0.012-0.195
		c-0.008-0.057-0.022-0.104-0.045-0.141c-0.023-0.037-0.056-0.064-0.099-0.084c-0.044-0.018-0.101-0.027-0.171-0.027
		c-0.073,0-0.161,0.008-0.266,0.023c-0.104,0.016-0.229,0.041-0.376,0.078L140.942,114.598z M142.468,117.918
		c0.166,0.141,0.333,0.244,0.499,0.313c0.165,0.066,0.332,0.1,0.498,0.1c0.22,0,0.423-0.047,0.608-0.141
		c0.186-0.092,0.345-0.232,0.479-0.416s0.239-0.412,0.315-0.684c0.075-0.273,0.113-0.588,0.113-0.947
		c0-0.133-0.011-0.271-0.031-0.412s-0.053-0.27-0.098-0.385c-0.044-0.113-0.102-0.209-0.173-0.281
		c-0.072-0.074-0.159-0.111-0.261-0.111c-0.12,0-0.238,0.031-0.356,0.094c-0.117,0.061-0.231,0.145-0.343,0.25
		c-0.11,0.105-0.217,0.229-0.319,0.369c-0.102,0.141-0.198,0.291-0.288,0.449c-0.091,0.158-0.173,0.32-0.247,0.488
		c-0.075,0.168-0.141,0.33-0.196,0.49c-0.056,0.158-0.101,0.309-0.135,0.449C142.499,117.686,142.478,117.811,142.468,117.918z"/>
</g>
<path fill="#FCB315" d="M97.376,110.615c0,0-6.906,6.145-18.484-2.611c0,0-9.405-6.906-15.578-1.068c0,0,6.31-5.023,16.044,3.791
	C79.358,110.727,88.133,118.109,97.376,110.615z"/>
<path fill="#FCB315" d="M80.346,105.168c0,0,8.232,8.508,16.735,4.883C97.081,110.051,92.522,111.943,80.346,105.168z"/>
<path fill="#FCB315" d="M79.05,115.9c0,0-5.945-10.238-15.07-8.764C63.98,107.137,68.861,106.396,79.05,115.9z"/>
<path fill="#F93800" d="M66.414,87.153c0,0-6.975-5.035-11.945-3.438c0,0-1.063,17.064,20.588,17.982
	c0,0-14.563-3.194-17.282-15.353C57.775,86.344,59.449,84.861,66.414,87.153z"/>
<path fill="#F93800" d="M68.404,92.295c0,0-3.921-3.236-6.914-2.486c0,0-1.281,10.024,11.455,11.396c0,0-8.467-2.441-9.605-9.718
	C63.339,91.487,64.384,90.676,68.404,92.295z"/>
<path fill="#F93800" d="M99.997,60.7c0,0,34.918,20.888,3.802,45.917c0,0,21.41-17.083-3.897-38.757L99.997,60.7z"/>
<path fill="#F93800" d="M122.734,74.958c0,0,5.783-3.25,11.285-3.465c0,0,6.729,30.765-25.431,31.903c0,0,24.54-4.24,21.001-27.18
	C129.59,76.217,128.487,75.357,122.734,74.958z"/>
<path fill="#F93800" d="M117.59,83.782c0,0,3.406-2.577,6.897-3.192c0,0,6.97,19.044-13.451,22.567c0,0,15.289-4.838,11.035-19.167
	C122.071,83.989,121.294,83.536,117.59,83.782z"/>
<path fill="#F93800" d="M133.615,87.153c0,0,6.976-5.035,11.945-3.438c0,0,1.063,17.064-20.588,17.982
	c0,0,14.563-3.194,17.282-15.353C142.255,86.344,140.581,84.861,133.615,87.153z"/>
<path fill="#F93800" d="M131.626,92.295c0,0,3.92-3.236,6.914-2.486c0,0,1.28,10.024-11.456,11.396c0,0,8.469-2.441,9.607-9.718
	C136.691,91.487,135.646,90.676,131.626,92.295z"/>
<path fill="#F93800" d="M99.919,77.437c0,0-23.675,13.755-2.589,30.215c0,0-14.508-11.235,2.653-25.503L99.919,77.437z"/>
<path fill="#F93800" d="M99.896,77.437c0,0,23.663,13.735,2.564,30.213c0,0,14.517-11.247-2.633-25.501L99.896,77.437z"/>
<g>
	<g>
		<g>
			<rect x="54.16" y="105.771" fill="#A00002" width="0.021" height="3.883"/>
		</g>
		<g>
			<rect x="53.827" y="105.771" fill="#A00002" width="0.038" height="3.883"/>
		</g>
		<g>
			<rect x="54.089" y="105.771" fill="#A00002" width="0.037" height="3.883"/>
		</g>
		<g>
			<rect x="53.897" y="105.771" fill="#A00002" width="0.021" height="3.883"/>
		</g>
		<g>
			<rect x="54.039" y="105.771" fill="#A00002" width="0.014" height="3.883"/>
		</g>
		<g>
			<rect x="53.952" y="105.771" fill="#A00002" width="0.037" height="3.883"/>
		</g>
		<g>
			<rect x="54.929" y="105.771" fill="#A00002" width="0.038" height="3.883"/>
		</g>
		<g>
			<rect x="54.605" y="105.771" fill="#A00002" width="0.037" height="3.883"/>
		</g>
		<g>
			<rect x="54.867" y="105.771" fill="#A00002" width="0.038" height="3.883"/>
		</g>
		<g>
			<rect x="54.672" y="105.771" fill="#A00002" width="0.027" height="3.883"/>
		</g>
		<g>
			<rect x="54.813" y="105.771" fill="#A00002" width="0.021" height="3.883"/>
		</g>
		<g>
			<rect x="54.729" y="105.771" fill="#A00002" width="0.038" height="3.883"/>
		</g>
		<g>
			<rect x="54.542" y="105.771" fill="#A00002" width="0.028" height="3.883"/>
		</g>
		<g>
			<rect x="54.213" y="105.771" fill="#A00002" width="0.038" height="3.883"/>
		</g>
		<g>
			<rect x="54.475" y="105.771" fill="#A00002" width="0.038" height="3.883"/>
		</g>
		<g>
			<rect x="54.28" y="105.771" fill="#A00002" width="0.027" height="3.883"/>
		</g>
		<g>
			<rect x="54.418" y="105.771" fill="#A00002" width="0.027" height="3.883"/>
		</g>
		<g>
			<rect x="54.338" y="105.771" fill="#A00002" width="0.038" height="3.883"/>
		</g>
	</g>
	<g>
		<g>
			<g>
				<path fill="#A00002" d="M49.762,97.757c0-2.206,2.086-4,4.651-4s4.651,1.794,4.651,4c0,2.205-2.087,3.999-4.651,3.999
					S49.762,99.962,49.762,97.757z M49.834,97.757c0,2.165,2.054,3.926,4.579,3.926c2.524,0,4.578-1.761,4.578-3.926
					c0-2.166-2.054-3.928-4.578-3.928C51.888,93.83,49.834,95.591,49.834,97.757z"/>
			</g>
			<g>
				<g>
					<g>
						<path fill="#A00002" d="M54.383,101.756l0.042-0.059c-0.005-0.004-0.573-0.48-0.549-3.913c0.023-3.285,0.55-3.949,0.556-3.955
							l-0.055-0.047c-0.022,0.025-0.55,0.674-0.573,4.002C53.78,101.281,54.358,101.738,54.383,101.756z"/>
					</g>
					<g>
						<path fill="#A00002" d="M54.35,101.744l0.018-0.072c-0.005,0-0.559-0.154-1.001-1.22c-0.236-0.57-0.468-1.249-0.48-2.713
							c-0.029-3.431,1.502-3.882,1.518-3.887l-0.019-0.069c-0.017,0.005-0.411,0.115-0.803,0.663
							c-0.359,0.499-0.784,1.476-0.768,3.293c0.012,1.478,0.257,2.188,0.485,2.74C53.757,101.584,54.326,101.738,54.35,101.744z"/>
					</g>
					<g>
						<path fill="#A00002" d="M54.339,101.756l0.015-0.07c-0.01-0.004-1.009-0.215-1.62-1c-0.333-0.43-0.836-1.076-0.836-2.838
							c0-2.027,0.676-3.001,1.243-3.462c0.614-0.497,1.236-0.519,1.243-0.519l-0.002-0.073c-0.026,0.001-0.649,0.021-1.283,0.533
							c-0.581,0.47-1.274,1.462-1.274,3.521c0,1.785,0.514,2.445,0.853,2.882C53.305,101.537,54.329,101.754,54.339,101.756z"/>
					</g>
					<g>
						<path fill="#A00002" d="M54.333,101.744l0.004-0.072c-0.01,0-0.979-0.068-1.912-0.694c-0.921-0.618-1.483-1.775-1.505-3.095
							c-0.021-1.305,0.323-2.323,1.022-3.024c1.006-1.01,2.415-1.006,2.428-1.005l0-0.072c-0.014,0-1.453-0.005-2.48,1.026
							c-0.713,0.717-1.063,1.751-1.042,3.076c0.021,1.344,0.595,2.523,1.536,3.155C53.334,101.676,54.323,101.744,54.333,101.744z"
							/>
					</g>
				</g>
				<g>
					<g>
						<path fill="#A00002" d="M54.429,101.76c0.005-0.004,0.608-0.406,0.584-3.975c-0.023-3.328-0.551-3.977-0.573-4.002
							l-0.055,0.047l0.028-0.024l-0.028,0.024c0.005,0.006,0.534,0.67,0.556,3.955c0.023,3.432-0.543,3.909-0.549,3.913l0.02,0.025
							L54.429,101.76z"/>
					</g>
					<g>
						<path fill="#A00002" d="M54.466,101.744c0.024-0.006,0.592-0.16,1.05-1.265c0.229-0.552,0.474-1.263,0.486-2.74
							c0.015-1.817-0.41-2.794-0.768-3.293c-0.393-0.548-0.787-0.658-0.803-0.663l-0.019,0.069l0.009-0.034l-0.009,0.034
							c0.004,0.002,0.39,0.111,0.768,0.642c0.351,0.491,0.766,1.453,0.75,3.245c-0.012,1.464-0.243,2.143-0.479,2.713
							c-0.444,1.072-0.996,1.22-1.001,1.22L54.466,101.744z"/>
					</g>
					<g>
						<path fill="#A00002" d="M54.477,101.756c0.01-0.002,1.035-0.219,1.663-1.027c0.339-0.437,0.852-1.097,0.852-2.882
							c0-2.059-0.693-3.051-1.274-3.521c-0.633-0.512-1.256-0.532-1.283-0.533l-0.002,0.073c0.007,0,0.629,0.021,1.243,0.519
							c0.567,0.461,1.244,1.435,1.244,3.462c0,1.762-0.504,2.408-0.837,2.838c-0.612,0.786-1.61,0.997-1.62,1L54.477,101.756z"/>
					</g>
					<g>
						<path fill="#A00002" d="M54.484,101.744c0.01,0,0.998-0.068,1.948-0.705c0.94-0.631,1.515-1.811,1.536-3.155
							c0.021-1.325-0.33-2.359-1.042-3.075c-1.027-1.032-2.423-1.027-2.481-1.027l0.001,0.072c0.012-0.001,1.423-0.004,2.429,1.006
							c0.698,0.702,1.042,1.719,1.021,3.023c-0.021,1.319-0.583,2.477-1.504,3.095c-0.934,0.625-1.903,0.694-1.913,0.694
							L54.484,101.744z"/>
					</g>
				</g>
			</g>
		</g>
		<path fill="#A00002" d="M53.458,93.846c0,0,0.573-0.071,0.946-0.071s0.95,0.071,0.95,0.071l-0.036-0.798h-1.823L53.458,93.846z"/>
		<path fill="#A00002" d="M53.456,101.662c0,0,0.572,0.063,0.946,0.063c0.373,0,0.95-0.063,0.95-0.063l-0.036,0.725h-1.824
			L53.456,101.662z"/>
	</g>
	
		<linearGradient id="SVGID_1_" gradientUnits="userSpaceOnUse" x1="1691.8037" y1="105.1768" x2="1692.8535" y2="105.1768" gradientTransform="matrix(-1 0 0 1 1746.7363 0)">
		<stop  offset="0" style="stop-color:#801517"/>
		<stop  offset="0.0447" style="stop-color:#8E181A"/>
		<stop  offset="0.1407" style="stop-color:#A61C20"/>
		<stop  offset="0.2421" style="stop-color:#B71F24"/>
		<stop  offset="0.3515" style="stop-color:#C22126"/>
		<stop  offset="0.4834" style="stop-color:#C52227"/>
		<stop  offset="0.6356" style="stop-color:#C22126"/>
		<stop  offset="0.7491" style="stop-color:#B82024"/>
		<stop  offset="0.8501" style="stop-color:#A81D20"/>
		<stop  offset="0.9432" style="stop-color:#92181B"/>
		<stop  offset="1" style="stop-color:#801517"/>
	</linearGradient>
	<rect x="53.882" y="104.838" fill="url(#SVGID_1_)" width="1.05" height="0.678"/>
	<g>
		
			<linearGradient id="SVGID_2_" gradientUnits="userSpaceOnUse" x1="1692.2207" y1="103.6113" x2="1692.4375" y2="103.6113" gradientTransform="matrix(-1 0 0 1 1746.7363 0)">
			<stop  offset="0" style="stop-color:#801517"/>
			<stop  offset="0.0447" style="stop-color:#8E181A"/>
			<stop  offset="0.1407" style="stop-color:#A61C20"/>
			<stop  offset="0.2421" style="stop-color:#B71F24"/>
			<stop  offset="0.3515" style="stop-color:#C22126"/>
			<stop  offset="0.4834" style="stop-color:#C52227"/>
			<stop  offset="0.6356" style="stop-color:#C22126"/>
			<stop  offset="0.7491" style="stop-color:#B82024"/>
			<stop  offset="0.8501" style="stop-color:#A81D20"/>
			<stop  offset="0.9432" style="stop-color:#92181B"/>
			<stop  offset="1" style="stop-color:#801517"/>
		</linearGradient>
		<rect x="54.299" y="102.383" fill="url(#SVGID_2_)" width="0.217" height="2.457"/>
	</g>
	
		<linearGradient id="SVGID_3_" gradientUnits="userSpaceOnUse" x1="1691.8037" y1="105.4873" x2="1692.8535" y2="105.4873" gradientTransform="matrix(-1 0 0 1 1746.7363 0)">
		<stop  offset="0" style="stop-color:#801517"/>
		<stop  offset="0.0447" style="stop-color:#8E181A"/>
		<stop  offset="0.1407" style="stop-color:#A61C20"/>
		<stop  offset="0.2421" style="stop-color:#B71F24"/>
		<stop  offset="0.3515" style="stop-color:#C22126"/>
		<stop  offset="0.4834" style="stop-color:#C52227"/>
		<stop  offset="0.6356" style="stop-color:#C22126"/>
		<stop  offset="0.7491" style="stop-color:#B82024"/>
		<stop  offset="0.8501" style="stop-color:#A81D20"/>
		<stop  offset="0.9432" style="stop-color:#92181B"/>
		<stop  offset="1" style="stop-color:#801517"/>
	</linearGradient>
	<path fill="url(#SVGID_3_)" d="M53.882,105.557c0,0,0.324,0.152,0.523,0.152c0.193,0,0.527-0.152,0.527-0.152v-0.291h-1.05V105.557
		z"/>
	<g>
		<rect x="54.298" y="84.341" fill="#A00002" width="0.217" height="8.706"/>
	</g>
	<g>
		<linearGradient id="SVGID_4_" gradientUnits="userSpaceOnUse" x1="53.7886" y1="105.4854" x2="54.9995" y2="105.4854">
			<stop  offset="0" style="stop-color:#801517"/>
			<stop  offset="0.0447" style="stop-color:#8E181A"/>
			<stop  offset="0.1407" style="stop-color:#A61C20"/>
			<stop  offset="0.2421" style="stop-color:#B71F24"/>
			<stop  offset="0.3515" style="stop-color:#C22126"/>
			<stop  offset="0.4834" style="stop-color:#C52227"/>
			<stop  offset="0.6356" style="stop-color:#C22126"/>
			<stop  offset="0.7491" style="stop-color:#B82024"/>
			<stop  offset="0.8501" style="stop-color:#A81D20"/>
			<stop  offset="0.9432" style="stop-color:#92181B"/>
			<stop  offset="1" style="stop-color:#801517"/>
		</linearGradient>
		<path fill="url(#SVGID_4_)" d="M55,106.484c0,0-0.234-0.061-0.605-0.057c-0.364,0.006-0.605,0.057-0.605,0.057v-1.922
			c0,0,0.25-0.076,0.605-0.076S55,104.563,55,104.563V106.484z"/>
		<radialGradient id="SVGID_5_" cx="54.394" cy="104.8447" r="0.5778" gradientUnits="userSpaceOnUse">
			<stop  offset="0.1186" style="stop-color:#F9E15E"/>
			<stop  offset="0.6118" style="stop-color:#C39945"/>
			<stop  offset="0.7556" style="stop-color:#B88840"/>
			<stop  offset="1" style="stop-color:#A06234"/>
		</radialGradient>
		<path fill="url(#SVGID_5_)" d="M55,104.998c0,0-0.206-0.076-0.605-0.068c-0.366,0.006-0.605,0.068-0.605,0.068v-0.229
			c0,0,0.25-0.078,0.605-0.078S55,104.77,55,104.77V104.998z"/>
		<radialGradient id="SVGID_6_" cx="54.394" cy="106.1025" r="0.5778" gradientUnits="userSpaceOnUse">
			<stop  offset="0.1186" style="stop-color:#F9E15E"/>
			<stop  offset="0.6118" style="stop-color:#C39945"/>
			<stop  offset="0.7556" style="stop-color:#B88840"/>
			<stop  offset="1" style="stop-color:#A06234"/>
		</radialGradient>
		<path fill="url(#SVGID_6_)" d="M55,106.256c0,0-0.206-0.076-0.605-0.068c-0.366,0.006-0.605,0.068-0.605,0.068v-0.229
			c0,0,0.25-0.078,0.605-0.078S55,106.027,55,106.027V106.256z"/>
		<radialGradient id="SVGID_7_" cx="54.394" cy="105.4746" r="0.5949" gradientUnits="userSpaceOnUse">
			<stop  offset="0.1186" style="stop-color:#F9E15E"/>
			<stop  offset="0.6118" style="stop-color:#C39945"/>
			<stop  offset="0.7556" style="stop-color:#B88840"/>
			<stop  offset="1" style="stop-color:#A06234"/>
		</radialGradient>
		<path fill="url(#SVGID_7_)" d="M55,105.691c0,0-0.206-0.078-0.605-0.072c-0.366,0.01-0.605,0.072-0.605,0.072v-0.355
			c0,0,0.25-0.078,0.605-0.078S55,105.336,55,105.336V105.691z"/>
		<linearGradient id="SVGID_8_" gradientUnits="userSpaceOnUse" x1="53.9326" y1="105.4824" x2="54.9416" y2="105.4928">
			<stop  offset="0" style="stop-color:#FCF8CD"/>
			<stop  offset="0.1292" style="stop-color:#EDD586"/>
			<stop  offset="0.4045" style="stop-color:#C1912D"/>
			<stop  offset="0.4532" style="stop-color:#CBA247"/>
			<stop  offset="0.5945" style="stop-color:#E5D08F"/>
			<stop  offset="0.6961" style="stop-color:#F6EDBC"/>
			<stop  offset="0.7472" style="stop-color:#FCF8CD"/>
			<stop  offset="0.9944" style="stop-color:#FAC927"/>
		</linearGradient>
		<path opacity="0.15" fill="url(#SVGID_8_)" d="M53.945,104.527v1.932c0.036-0.004,0.078-0.01,0.125-0.014v-1.938
			C54.023,104.514,53.981,104.52,53.945,104.527z"/>
		<linearGradient id="SVGID_9_" gradientUnits="userSpaceOnUse" x1="53.9336" y1="105.4639" x2="54.9434" y2="105.4743">
			<stop  offset="0" style="stop-color:#FCF8CD"/>
			<stop  offset="0.1292" style="stop-color:#EDD586"/>
			<stop  offset="0.4045" style="stop-color:#C1912D"/>
			<stop  offset="0.4532" style="stop-color:#CBA247"/>
			<stop  offset="0.5945" style="stop-color:#E5D08F"/>
			<stop  offset="0.6961" style="stop-color:#F6EDBC"/>
			<stop  offset="0.7472" style="stop-color:#FCF8CD"/>
			<stop  offset="0.9944" style="stop-color:#FAC927"/>
		</linearGradient>
		<path opacity="0.15" fill="url(#SVGID_9_)" d="M54.139,104.498v1.941c0.023-0.002,0.047-0.004,0.073-0.004v-1.943
			C54.186,104.494,54.162,104.496,54.139,104.498z"/>
		<linearGradient id="SVGID_10_" gradientUnits="userSpaceOnUse" x1="53.9326" y1="105.4795" x2="54.9451" y2="105.4899">
			<stop  offset="0" style="stop-color:#FCF8CD"/>
			<stop  offset="0.1292" style="stop-color:#EDD586"/>
			<stop  offset="0.4045" style="stop-color:#C1912D"/>
			<stop  offset="0.4532" style="stop-color:#CBA247"/>
			<stop  offset="0.5945" style="stop-color:#E5D08F"/>
			<stop  offset="0.6961" style="stop-color:#F6EDBC"/>
			<stop  offset="0.7472" style="stop-color:#FCF8CD"/>
			<stop  offset="0.9944" style="stop-color:#FAC927"/>
		</linearGradient>
		<path opacity="0.15" fill="url(#SVGID_10_)" d="M54.738,104.51v1.934c0.071,0.006,0.129,0.014,0.172,0.023v-1.926
			C54.867,104.531,54.809,104.52,54.738,104.51z"/>
	</g>
	<radialGradient id="SVGID_11_" cx="54.4077" cy="103.5732" r="0.5598" gradientUnits="userSpaceOnUse">
		<stop  offset="0.1186" style="stop-color:#F9E15E"/>
		<stop  offset="0.6118" style="stop-color:#C39945"/>
		<stop  offset="0.7556" style="stop-color:#B88840"/>
		<stop  offset="1" style="stop-color:#A06234"/>
	</radialGradient>
	<circle fill="url(#SVGID_11_)" cx="54.408" cy="103.572" r="0.56"/>
	<g>
		<path fill="#A00002" d="M55.927,90.182c0-0.216-0.181-0.396-0.432-0.462c0.002-0.12-0.033-0.232-0.115-0.314
			c-0.19-0.19-0.547-0.145-0.795,0.104c-0.078,0.078-0.135,0.167-0.171,0.258c-0.037-0.091-0.094-0.18-0.171-0.258
			c-0.248-0.248-0.604-0.294-0.795-0.104c-0.082,0.082-0.118,0.194-0.116,0.314c-0.25,0.065-0.431,0.246-0.431,0.462
			c0,0.239,0.224,0.438,0.519,0.479c-0.015,0.14,0.021,0.271,0.113,0.364c0.191,0.191,0.547,0.145,0.795-0.103
			c0.033-0.033,0.061-0.067,0.086-0.103c0.025,0.035,0.054,0.069,0.086,0.103c0.248,0.247,0.604,0.294,0.795,0.103
			c0.092-0.093,0.128-0.225,0.113-0.364C55.703,90.62,55.927,90.421,55.927,90.182z M54.091,90.602
			c-0.114,0.185-0.264,0.3-0.335,0.256s-0.037-0.229,0.078-0.414c0.049-0.081,0.106-0.148,0.16-0.195
			c-0.064-0.04-0.134-0.103-0.199-0.182c-0.144-0.173-0.206-0.358-0.14-0.413c0.067-0.056,0.237,0.041,0.38,0.215
			c0.114,0.137,0.176,0.28,0.165,0.362C54.221,90.307,54.181,90.455,54.091,90.602z M55.001,90.452
			c0.114,0.186,0.149,0.372,0.078,0.414c-0.071,0.044-0.221-0.07-0.334-0.256c-0.091-0.147-0.131-0.293-0.109-0.371
			c-0.012-0.08,0.051-0.226,0.165-0.363c0.143-0.173,0.313-0.269,0.38-0.214c0.067,0.056,0.004,0.24-0.139,0.414
			c-0.065,0.079-0.135,0.142-0.199,0.181C54.895,90.303,54.951,90.371,55.001,90.452z"/>
	</g>
</g>
<g>
	<g>
		<g>
			<rect x="145.389" y="100.059" fill="#A00002" width="0.019" height="3.296"/>
		</g>
		<g>
			<rect x="145.107" y="100.059" fill="#A00002" width="0.031" height="3.296"/>
		</g>
		<g>
			<rect x="145.329" y="100.059" fill="#A00002" width="0.031" height="3.296"/>
		</g>
		<g>
			<rect x="145.166" y="100.059" fill="#A00002" width="0.019" height="3.296"/>
		</g>
		<g>
			<rect x="145.286" y="100.059" fill="#A00002" width="0.012" height="3.296"/>
		</g>
		<g>
			<rect x="145.213" y="100.059" fill="#A00002" width="0.031" height="3.296"/>
		</g>
		<g>
			<rect x="146.043" y="100.059" fill="#A00002" width="0.031" height="3.296"/>
		</g>
		<g>
			<rect x="145.768" y="100.059" fill="#A00002" width="0.031" height="3.296"/>
		</g>
		<g>
			<rect x="145.989" y="100.059" fill="#A00002" width="0.032" height="3.296"/>
		</g>
		<g>
			<rect x="145.823" y="100.059" fill="#A00002" width="0.024" height="3.296"/>
		</g>
		<g>
			<rect x="145.944" y="100.059" fill="#A00002" width="0.017" height="3.296"/>
		</g>
		<g>
			<rect x="145.873" y="100.059" fill="#A00002" width="0.031" height="3.296"/>
		</g>
		<g>
			<rect x="145.713" y="100.059" fill="#A00002" width="0.024" height="3.296"/>
		</g>
		<g>
			<rect x="145.434" y="100.059" fill="#A00002" width="0.032" height="3.296"/>
		</g>
		<g>
			<rect x="145.657" y="100.059" fill="#A00002" width="0.031" height="3.296"/>
		</g>
		<g>
			<rect x="145.491" y="100.059" fill="#A00002" width="0.023" height="3.296"/>
		</g>
		<g>
			<rect x="145.607" y="100.059" fill="#A00002" width="0.023" height="3.296"/>
		</g>
		<g>
			<rect x="145.54" y="100.059" fill="#A00002" width="0.031" height="3.296"/>
		</g>
	</g>
	<g>
		<g>
			<g>
				<path fill="#A00002" d="M141.657,93.257c0-1.871,1.771-3.394,3.947-3.394s3.947,1.522,3.947,3.394
					c0,1.872-1.771,3.395-3.947,3.395S141.657,95.129,141.657,93.257z M141.718,93.257c0,1.838,1.743,3.333,3.887,3.333
					c2.142,0,3.885-1.495,3.885-3.333s-1.743-3.333-3.885-3.333C143.461,89.924,141.718,91.419,141.718,93.257z"/>
			</g>
			<g>
				<g>
					<g>
						<path fill="#A00002" d="M145.578,96.652l0.036-0.051c-0.005-0.003-0.485-0.406-0.466-3.32c0.02-2.787,0.468-3.352,0.471-3.356
							l-0.046-0.04c-0.02,0.022-0.467,0.572-0.486,3.396C145.066,96.25,145.558,96.636,145.578,96.652z"/>
					</g>
					<g>
						<path fill="#A00002" d="M145.55,96.641l0.016-0.06c-0.005-0.002-0.475-0.131-0.849-1.037c-0.201-0.483-0.397-1.06-0.408-2.303
							c-0.023-2.911,1.274-3.294,1.288-3.298l-0.016-0.059c-0.015,0.003-0.349,0.098-0.682,0.562
							c-0.305,0.424-0.665,1.254-0.652,2.796c0.012,1.254,0.218,1.857,0.412,2.325C145.048,96.505,145.53,96.636,145.55,96.641z"/>
					</g>
					<g>
						<path fill="#A00002" d="M145.542,96.652l0.012-0.061c-0.009-0.002-0.855-0.182-1.374-0.85c-0.283-0.363-0.71-0.912-0.71-2.407
							c0-1.721,0.574-2.548,1.056-2.938c0.521-0.423,1.049-0.441,1.054-0.441l-0.001-0.062c-0.023,0.001-0.552,0.019-1.089,0.452
							c-0.493,0.398-1.081,1.24-1.081,2.988c0,1.516,0.436,2.075,0.723,2.445C144.664,96.464,145.533,96.65,145.542,96.652z"/>
					</g>
					<g>
						<path fill="#A00002" d="M145.535,96.642l0.004-0.062c-0.008-0.001-0.831-0.058-1.622-0.589
							c-0.782-0.524-1.26-1.507-1.277-2.627c-0.018-1.107,0.274-1.971,0.867-2.566c0.854-0.857,2.05-0.854,2.062-0.854v-0.061
							c-0.012-0.001-1.233-0.004-2.104,0.87c-0.605,0.608-0.903,1.486-0.886,2.612c0.018,1.14,0.506,2.141,1.304,2.676
							C144.688,96.583,145.527,96.642,145.535,96.642z"/>
					</g>
				</g>
				<g>
					<g>
						<path fill="#A00002" d="M145.617,96.654c0.006-0.002,0.517-0.344,0.496-3.373c-0.02-2.824-0.468-3.374-0.486-3.396
							l-0.047,0.04l0.022-0.021l-0.022,0.021c0.005,0.005,0.453,0.569,0.471,3.356c0.021,2.914-0.461,3.317-0.466,3.321l0.018,0.021
							L145.617,96.654z"/>
					</g>
					<g>
						<path fill="#A00002" d="M145.649,96.641c0.021-0.005,0.502-0.136,0.891-1.073c0.194-0.468,0.402-1.071,0.412-2.325
							c0.014-1.542-0.348-2.372-0.651-2.796c-0.334-0.464-0.668-0.559-0.682-0.562l-0.017,0.059l0.009-0.029l-0.009,0.029
							c0.004,0.001,0.331,0.095,0.652,0.544c0.297,0.417,0.649,1.233,0.637,2.754c-0.011,1.243-0.208,1.819-0.408,2.303
							c-0.376,0.909-0.845,1.035-0.85,1.037L145.649,96.641z"/>
					</g>
					<g>
						<path fill="#A00002" d="M145.658,96.652c0.009-0.002,0.878-0.188,1.411-0.872c0.287-0.37,0.724-0.93,0.724-2.445
							c0-1.748-0.589-2.59-1.083-2.988c-0.536-0.434-1.065-0.451-1.088-0.452l-0.001,0.062c0.005,0,0.533,0.019,1.055,0.441
							c0.48,0.39,1.055,1.217,1.055,2.938c0,1.495-0.428,2.044-0.711,2.407c-0.519,0.668-1.365,0.848-1.374,0.85L145.658,96.652z"/>
					</g>
					<g>
						<path fill="#A00002" d="M145.664,96.642c0.008,0,0.847-0.059,1.654-0.6c0.797-0.535,1.285-1.536,1.303-2.676
							c0.019-1.126-0.28-2.004-0.885-2.611c-0.87-0.875-2.056-0.872-2.105-0.871l0.001,0.061c0.011,0,1.208-0.004,2.062,0.854
							c0.593,0.596,0.884,1.459,0.867,2.566c-0.019,1.12-0.496,2.103-1.277,2.627c-0.792,0.531-1.614,0.588-1.623,0.589
							L145.664,96.642z"/>
					</g>
				</g>
			</g>
		</g>
		<path fill="#A00002" d="M144.794,89.938c0,0,0.485-0.061,0.803-0.061c0.316,0,0.806,0.061,0.806,0.061l-0.031-0.677h-1.548
			L144.794,89.938z"/>
		<path fill="#A00002" d="M144.792,96.572c0,0,0.486,0.054,0.803,0.054s0.806-0.054,0.806-0.054l-0.029,0.614h-1.548L144.792,96.572
			z"/>
	</g>
	
		<linearGradient id="SVGID_12_" gradientUnits="userSpaceOnUse" x1="1600.6914" y1="99.5557" x2="1601.583" y2="99.5557" gradientTransform="matrix(-1 0 0 1 1746.7363 0)">
		<stop  offset="0" style="stop-color:#801517"/>
		<stop  offset="0.0447" style="stop-color:#8E181A"/>
		<stop  offset="0.1407" style="stop-color:#A61C20"/>
		<stop  offset="0.2421" style="stop-color:#B71F24"/>
		<stop  offset="0.3515" style="stop-color:#C22126"/>
		<stop  offset="0.4834" style="stop-color:#C52227"/>
		<stop  offset="0.6356" style="stop-color:#C22126"/>
		<stop  offset="0.7491" style="stop-color:#B82024"/>
		<stop  offset="0.8501" style="stop-color:#A81D20"/>
		<stop  offset="0.9432" style="stop-color:#92181B"/>
		<stop  offset="1" style="stop-color:#801517"/>
	</linearGradient>
	<rect x="145.153" y="99.268" fill="url(#SVGID_12_)" width="0.892" height="0.575"/>
	<g>
		
			<linearGradient id="SVGID_13_" gradientUnits="userSpaceOnUse" x1="1601.0449" y1="98.2266" x2="1601.2285" y2="98.2266" gradientTransform="matrix(-1 0 0 1 1746.7363 0)">
			<stop  offset="0" style="stop-color:#801517"/>
			<stop  offset="0.0447" style="stop-color:#8E181A"/>
			<stop  offset="0.1407" style="stop-color:#A61C20"/>
			<stop  offset="0.2421" style="stop-color:#B71F24"/>
			<stop  offset="0.3515" style="stop-color:#C22126"/>
			<stop  offset="0.4834" style="stop-color:#C52227"/>
			<stop  offset="0.6356" style="stop-color:#C22126"/>
			<stop  offset="0.7491" style="stop-color:#B82024"/>
			<stop  offset="0.8501" style="stop-color:#A81D20"/>
			<stop  offset="0.9432" style="stop-color:#92181B"/>
			<stop  offset="1" style="stop-color:#801517"/>
		</linearGradient>
		<rect x="145.508" y="97.184" fill="url(#SVGID_13_)" width="0.184" height="2.085"/>
	</g>
	
		<linearGradient id="SVGID_14_" gradientUnits="userSpaceOnUse" x1="1600.6914" y1="99.8193" x2="1601.583" y2="99.8193" gradientTransform="matrix(-1 0 0 1 1746.7363 0)">
		<stop  offset="0" style="stop-color:#801517"/>
		<stop  offset="0.0447" style="stop-color:#8E181A"/>
		<stop  offset="0.1407" style="stop-color:#A61C20"/>
		<stop  offset="0.2421" style="stop-color:#B71F24"/>
		<stop  offset="0.3515" style="stop-color:#C22126"/>
		<stop  offset="0.4834" style="stop-color:#C52227"/>
		<stop  offset="0.6356" style="stop-color:#C22126"/>
		<stop  offset="0.7491" style="stop-color:#B82024"/>
		<stop  offset="0.8501" style="stop-color:#A81D20"/>
		<stop  offset="0.9432" style="stop-color:#92181B"/>
		<stop  offset="1" style="stop-color:#801517"/>
	</linearGradient>
	<path fill="url(#SVGID_14_)" d="M145.153,99.877c0,0,0.275,0.129,0.444,0.129c0.163,0,0.447-0.129,0.447-0.129v-0.245h-0.892
		V99.877z"/>
	<g>
		<rect x="145.507" y="83.659" fill="#A00002" width="0.185" height="5.602"/>
	</g>
	<g>
		<linearGradient id="SVGID_15_" gradientUnits="userSpaceOnUse" x1="145.0742" y1="99.8164" x2="146.1025" y2="99.8164">
			<stop  offset="0" style="stop-color:#801517"/>
			<stop  offset="0.0447" style="stop-color:#8E181A"/>
			<stop  offset="0.1407" style="stop-color:#A61C20"/>
			<stop  offset="0.2421" style="stop-color:#B71F24"/>
			<stop  offset="0.3515" style="stop-color:#C22126"/>
			<stop  offset="0.4834" style="stop-color:#C52227"/>
			<stop  offset="0.6356" style="stop-color:#C22126"/>
			<stop  offset="0.7491" style="stop-color:#B82024"/>
			<stop  offset="0.8501" style="stop-color:#A81D20"/>
			<stop  offset="0.9432" style="stop-color:#92181B"/>
			<stop  offset="1" style="stop-color:#801517"/>
		</linearGradient>
		<path fill="url(#SVGID_15_)" d="M146.103,100.665c0,0-0.199-0.053-0.515-0.048c-0.309,0.005-0.514,0.048-0.514,0.048v-1.63
			c0,0,0.212-0.066,0.514-0.066s0.515,0.066,0.515,0.066V100.665z"/>
		<radialGradient id="SVGID_16_" cx="145.5879" cy="99.2734" r="0.4911" gradientUnits="userSpaceOnUse">
			<stop  offset="0.1186" style="stop-color:#F9E15E"/>
			<stop  offset="0.6118" style="stop-color:#C39945"/>
			<stop  offset="0.7556" style="stop-color:#B88840"/>
			<stop  offset="1" style="stop-color:#A06234"/>
		</radialGradient>
		<path fill="url(#SVGID_16_)" d="M146.103,99.404c0,0-0.176-0.066-0.515-0.06c-0.31,0.006-0.514,0.06-0.514,0.06v-0.194
			c0,0,0.212-0.066,0.514-0.066s0.515,0.066,0.515,0.066V99.404z"/>
		<radialGradient id="SVGID_17_" cx="145.5879" cy="100.3413" r="0.4912" gradientUnits="userSpaceOnUse">
			<stop  offset="0.1186" style="stop-color:#F9E15E"/>
			<stop  offset="0.6118" style="stop-color:#C39945"/>
			<stop  offset="0.7556" style="stop-color:#B88840"/>
			<stop  offset="1" style="stop-color:#A06234"/>
		</radialGradient>
		<path fill="url(#SVGID_17_)" d="M146.103,100.472c0,0-0.176-0.066-0.515-0.061c-0.31,0.007-0.514,0.061-0.514,0.061v-0.195
			c0,0,0.212-0.066,0.514-0.066s0.515,0.066,0.515,0.066V100.472z"/>
		<radialGradient id="SVGID_18_" cx="145.5879" cy="99.8071" r="0.5055" gradientUnits="userSpaceOnUse">
			<stop  offset="0.1186" style="stop-color:#F9E15E"/>
			<stop  offset="0.6118" style="stop-color:#C39945"/>
			<stop  offset="0.7556" style="stop-color:#B88840"/>
			<stop  offset="1" style="stop-color:#A06234"/>
		</radialGradient>
		<path fill="url(#SVGID_18_)" d="M146.103,99.991c0,0-0.176-0.065-0.515-0.06c-0.31,0.007-0.514,0.06-0.514,0.06V99.69
			c0,0,0.212-0.066,0.514-0.066s0.515,0.066,0.515,0.066V99.991z"/>
		<linearGradient id="SVGID_19_" gradientUnits="userSpaceOnUse" x1="145.1973" y1="99.814" x2="146.0495" y2="99.8228">
			<stop  offset="0" style="stop-color:#FCF8CD"/>
			<stop  offset="0.1292" style="stop-color:#EDD586"/>
			<stop  offset="0.4045" style="stop-color:#C1912D"/>
			<stop  offset="0.4532" style="stop-color:#CBA247"/>
			<stop  offset="0.5945" style="stop-color:#E5D08F"/>
			<stop  offset="0.6961" style="stop-color:#F6EDBC"/>
			<stop  offset="0.7472" style="stop-color:#FCF8CD"/>
			<stop  offset="0.9944" style="stop-color:#FAC927"/>
		</linearGradient>
		<path opacity="0.15" fill="url(#SVGID_19_)" d="M145.207,99.003v1.64c0.031-0.004,0.066-0.008,0.105-0.011v-1.646
			C145.273,98.992,145.238,98.998,145.207,99.003z"/>
		<linearGradient id="SVGID_20_" gradientUnits="userSpaceOnUse" x1="145.1973" y1="99.7988" x2="146.0583" y2="99.8077">
			<stop  offset="0" style="stop-color:#FCF8CD"/>
			<stop  offset="0.1292" style="stop-color:#EDD586"/>
			<stop  offset="0.4045" style="stop-color:#C1912D"/>
			<stop  offset="0.4532" style="stop-color:#CBA247"/>
			<stop  offset="0.5945" style="stop-color:#E5D08F"/>
			<stop  offset="0.6961" style="stop-color:#F6EDBC"/>
			<stop  offset="0.7472" style="stop-color:#FCF8CD"/>
			<stop  offset="0.9944" style="stop-color:#FAC927"/>
		</linearGradient>
		<path opacity="0.15" fill="url(#SVGID_20_)" d="M145.371,98.98v1.647c0.02-0.003,0.041-0.004,0.063-0.005v-1.648
			C145.412,98.975,145.391,98.978,145.371,98.98z"/>
		<linearGradient id="SVGID_21_" gradientUnits="userSpaceOnUse" x1="145.1982" y1="99.8115" x2="146.0565" y2="99.8204">
			<stop  offset="0" style="stop-color:#FCF8CD"/>
			<stop  offset="0.1292" style="stop-color:#EDD586"/>
			<stop  offset="0.4045" style="stop-color:#C1912D"/>
			<stop  offset="0.4532" style="stop-color:#CBA247"/>
			<stop  offset="0.5945" style="stop-color:#E5D08F"/>
			<stop  offset="0.6961" style="stop-color:#F6EDBC"/>
			<stop  offset="0.7472" style="stop-color:#FCF8CD"/>
			<stop  offset="0.9944" style="stop-color:#FAC927"/>
		</linearGradient>
		<path opacity="0.15" fill="url(#SVGID_21_)" d="M145.88,98.989v1.641c0.061,0.006,0.11,0.014,0.146,0.02v-1.634
			C145.989,99.006,145.939,98.997,145.88,98.989z"/>
	</g>
	<radialGradient id="SVGID_22_" cx="145.5996" cy="98.1934" r="0.4753" gradientUnits="userSpaceOnUse">
		<stop  offset="0.1186" style="stop-color:#F9E15E"/>
		<stop  offset="0.6118" style="stop-color:#C39945"/>
		<stop  offset="0.7556" style="stop-color:#B88840"/>
		<stop  offset="1" style="stop-color:#A06234"/>
	</radialGradient>
	<circle fill="url(#SVGID_22_)" cx="145.6" cy="98.193" r="0.475"/>
	<g>
		<path fill="#A00002" d="M146.889,86.829c0-0.183-0.154-0.336-0.366-0.392c0.001-0.103-0.028-0.197-0.098-0.267
			c-0.163-0.162-0.465-0.123-0.675,0.088c-0.066,0.065-0.114,0.142-0.146,0.219c-0.031-0.077-0.08-0.153-0.146-0.219
			c-0.21-0.211-0.513-0.25-0.674-0.088c-0.069,0.069-0.101,0.164-0.099,0.267c-0.213,0.056-0.366,0.209-0.366,0.392
			c0,0.203,0.189,0.372,0.44,0.408c-0.012,0.117,0.018,0.229,0.097,0.308c0.161,0.163,0.465,0.124,0.675-0.087
			c0.027-0.027,0.052-0.057,0.073-0.087c0.021,0.03,0.045,0.06,0.072,0.087c0.211,0.211,0.513,0.25,0.675,0.087
			c0.079-0.078,0.109-0.19,0.097-0.308C146.698,87.201,146.889,87.032,146.889,86.829z M145.331,87.185
			c-0.098,0.157-0.224,0.255-0.285,0.217c-0.06-0.036-0.03-0.194,0.066-0.351c0.042-0.069,0.09-0.127,0.135-0.166
			c-0.054-0.034-0.113-0.087-0.168-0.153c-0.122-0.147-0.175-0.306-0.119-0.352c0.057-0.047,0.201,0.035,0.323,0.182
			c0.097,0.117,0.149,0.239,0.14,0.309C145.441,86.936,145.407,87.06,145.331,87.185z M146.104,87.058
			c0.096,0.157,0.125,0.314,0.065,0.352c-0.061,0.037-0.188-0.061-0.284-0.218c-0.077-0.125-0.11-0.249-0.093-0.313
			c-0.01-0.07,0.044-0.193,0.141-0.31c0.122-0.147,0.266-0.228,0.322-0.182c0.057,0.047,0.004,0.203-0.118,0.351
			c-0.056,0.068-0.115,0.12-0.17,0.154C146.013,86.932,146.061,86.989,146.104,87.058z"/>
	</g>
</g>
<g>
	<radialGradient id="SVGID_23_" cx="75.6758" cy="123.4951" r="174.5285" gradientUnits="userSpaceOnUse">
		<stop  offset="0.1452" style="stop-color:#9C6800"/>
		<stop  offset="0.414" style="stop-color:#DFA93C"/>
		<stop  offset="0.4652" style="stop-color:#E1AE47"/>
		<stop  offset="0.8308" style="stop-color:#EDCE91"/>
		<stop  offset="1" style="stop-color:#F2DBAE"/>
	</radialGradient>
	<path fill="url(#SVGID_23_)" d="M97.144,9.04l-3.728,3.728c-0.231,0.23-0.231,0.605,0,0.837l2.091,2.092l-2.032,2.031l-2.091-2.092
		c-0.23-0.231-0.606-0.231-0.837,0L14.685,91.499c-0.231,0.23-0.231,0.605,0,0.837l2.091,2.092l-2.032,2.031l-2.091-2.092
		c-0.231-0.23-0.606-0.23-0.837,0l-3.729,3.73c-0.231,0.23-0.231,0.605,0,0.836l2.091,2.092l-1.805,1.805
		c-0.231,0.23-0.231,0.605,0,0.836l2.438,2.438c0.231,0.232,0.606,0.232,0.837,0l1.804-1.803l1.027,1.025l-2.018,2.02
		c-0.231,0.23-0.231,0.605,0,0.836l80.307,80.309c0.23,0.23,0.606,0.23,0.837,0l2.018-2.02l1.027,1.027l-1.805,1.805
		c-0.231,0.23-0.231,0.605,0,0.838l2.438,2.438c0.231,0.23,0.606,0.23,0.837,0l1.805-1.805l2.091,2.09
		c0.231,0.232,0.606,0.232,0.837,0l3.73-3.729c0.23-0.23,0.23-0.605,0-0.836l-2.091-2.092l2.03-2.031l2.092,2.09
		c0.23,0.232,0.606,0.232,0.837,0l75.862-75.863c0.232-0.23,0.232-0.605,0-0.836l-2.09-2.092l2.03-2.031l2.092,2.092
		c0.231,0.23,0.606,0.23,0.838,0l3.726-3.727c0.231-0.232,0.231-0.607,0-0.838l-2.091-2.091l1.805-1.805
		c0.23-0.232,0.23-0.606,0-0.838l-2.438-2.438c-0.23-0.231-0.606-0.231-0.837,0l-1.804,1.805l-1.027-1.026l2.021-2.021
		c0.23-0.23,0.23-0.605,0-0.837l-80.307-80.307c-0.231-0.23-0.606-0.23-0.837,0l-2.021,2.021l-1.026-1.027l1.806-1.804
		c0.23-0.231,0.23-0.606,0-0.837l-2.438-2.438c-0.23-0.231-0.606-0.231-0.837,0l-1.805,1.805L97.98,9.04
		C97.75,8.809,97.375,8.809,97.144,9.04z M9.343,98.515l2.892-2.893l1.673,1.673l-2.892,2.893L9.343,98.515z M11.23,104.85
		l-1.602-1.602l1.387-1.387l1.601,1.602L11.23,104.85z M11.853,101.025l2.892-2.893l1.601,1.601l-2.893,2.894L11.853,101.025z
		 M97.703,191.322l-1.601-1.602l1.385-1.385l1.602,1.6L97.703,191.322z M98.325,187.498l2.893-2.893l1.601,1.602l-2.893,2.891
		L98.325,187.498z M105.328,188.717l-2.893,2.893l-1.673-1.674l2.893-2.893L105.328,188.717z M190.655,103.389l-2.891,2.891
		l-1.673-1.674l2.891-2.889L190.655,103.389z M188.768,97.055l1.602,1.601l-1.387,1.387l-1.601-1.602L188.768,97.055z
		 M188.145,100.879l-2.89,2.89l-1.601-1.602l2.891-2.889L188.145,100.879z M103.955,16.689c0.231,0.23,0.606,0.23,0.837,0
		l2.021-2.021l79.471,79.47l-2.021,2.021c-0.23,0.23-0.23,0.606,0,0.837l1.446,1.445l-3.309,3.309c-0.232,0.23-0.232,0.605,0,0.836
		l2.019,2.02l-2.45,2.451c-0.23,0.232-0.23,0.605,0,0.836l2.092,2.092l-75.026,75.027l-2.091-2.092c-0.231-0.23-0.605-0.23-0.837,0
		l-2.45,2.449l-2.02-2.02c-0.23-0.23-0.606-0.23-0.836,0l-3.312,3.311l-1.445-1.445c-0.23-0.23-0.605-0.23-0.837,0l-2.018,2.02
		l-79.47-79.471l2.018-2.018c0.231-0.232,0.231-0.607,0-0.838l-1.445-1.445l3.312-3.31c0.231-0.231,0.231-0.606,0-0.838l-2.02-2.02
		l2.45-2.449c0.231-0.231,0.231-0.606,0-0.837l-2.091-2.092l75.026-75.026l2.091,2.091c0.231,0.23,0.606,0.23,0.838,0l2.45-2.45
		l2.02,2.019c0.23,0.231,0.606,0.231,0.837,0l3.309-3.309L103.955,16.689z M102.295,10.582l1.602,1.602l-1.387,1.386l-1.601-1.602
		L102.295,10.582z M101.672,14.406l-2.889,2.891l-1.602-1.601l2.891-2.891L101.672,14.406z M96.345,14.858l-1.673-1.672l2.89-2.891
		l1.673,1.673L96.345,14.858z"/>
	<radialGradient id="SVGID_24_" cx="75.6758" cy="123.4951" r="174.5295" gradientUnits="userSpaceOnUse">
		<stop  offset="0.1452" style="stop-color:#9C6800"/>
		<stop  offset="0.414" style="stop-color:#DFA93C"/>
		<stop  offset="0.4652" style="stop-color:#E1AE47"/>
		<stop  offset="0.8308" style="stop-color:#EDCE91"/>
		<stop  offset="1" style="stop-color:#F2DBAE"/>
	</radialGradient>
	<path fill="url(#SVGID_24_)" d="M199.577,100.532L100.419,1.375c-0.231-0.231-0.605-0.231-0.836,0l-99.16,99.158
		c-0.231,0.231-0.231,0.606,0,0.838l99.157,99.156c0.231,0.232,0.606,0.232,0.837,0l99.16-99.158
		C199.808,101.139,199.808,100.762,199.577,100.532z M99.999,199.271l-98.32-98.319L100.001,2.63l98.32,98.32L99.999,199.271z"/>
</g>
<g>
</g>
<g>
</g>
<g>
</g>
<g>
</g>
<g>
</g>
<g>
</g>
</svg>
